<svg width="169" height="141" viewBox="0 0 169 141" fill="none" xmlns="http://www.w3.org/2000/svg">
<rect y="9" width="136" height="132" fill="white"/>
<path d="M94.875 121.5C92.7917 121.5 90.0417 121.458 86.625 121.375C83.2917 121.375 79.3333 121.333 74.75 121.25C70.1667 121.167 66 121.083 62.25 121C58.5 121 55.1667 121 52.25 121L37.125 121.375C36.875 121.125 36.75 120.458 36.75 119.375C36.75 118.292 36.875 117.75 37.125 117.75C37.875 117.75 38.875 117.625 40.125 117.375C41.375 117.042 42.5417 116.667 43.625 116.25C44.7917 115.833 45.5 115.375 45.75 114.875C46.3333 113.958 46.625 110.042 46.625 103.125V55.875C46.625 53.4583 46.5417 51.3333 46.375 49.5C46.2917 47.6667 46.0833 46.2083 45.75 45.125C45.5833 44.625 44.9167 44.1667 43.75 43.75C42.6667 43.3333 41.4583 43 40.125 42.75C38.875 42.5 37.875 42.375 37.125 42.375C36.7917 42.375 36.625 41.875 36.625 40.875C36.625 39.7917 36.7917 39.0833 37.125 38.75C39.2917 38.8333 41.5833 38.9167 44 39C46.5 39 49.1667 39 52 39C53.9167 39 56.5 38.9583 59.75 38.875C63 38.7917 66.9167 38.6667 71.5 38.5C76.1667 38.3333 80.2083 38.2083 83.625 38.125C87.125 38.0417 90.0417 38 92.375 38C92.5417 39.1667 92.7917 40.5833 93.125 42.25C93.4583 43.8333 93.875 45.5833 94.375 47.5C94.7917 49.5 95.125 51.125 95.375 52.375C95.7083 53.625 95.9167 54.5 96 55C95.5833 55.4167 94.8333 55.625 93.75 55.625C92.6667 55.625 92.0833 55.3333 92 54.75C90.75 50.1667 89 47.25 86.75 46C84.5 44.6667 81.4167 44 77.5 44H69.125C61.875 44 58.2083 44.5417 58.125 45.625C57.9583 46.625 57.7917 48 57.625 49.75C57.5417 51.5 57.5 53.625 57.5 56.125V76.125C57.5 76.625 59.2917 76.875 62.875 76.875H69.5C72.3333 76.875 74.25 76.875 75.25 76.875C76.25 76.7917 76.9583 76.6667 77.375 76.5C77.875 76.3333 78.7917 76.0833 80.125 75.75C80.9583 75.5833 81.5833 74.625 82 72.875C82.5 71.0417 82.9167 69.5417 83.25 68.375C83.3333 67.7917 83.9583 67.5 85.125 67.5C86.125 67.5 86.8333 67.7083 87.25 68.125V91.75C86.9167 92.0833 86.25 92.25 85.25 92.25C84.1667 92.25 83.5 91.9167 83.25 91.25C82.9167 90.0833 82.625 89.0833 82.375 88.25C82.125 87.4167 81.9167 86.7083 81.75 86.125C81.3333 84.9583 81 84.2917 80.75 84.125C80.5833 83.9583 80.25 83.7083 79.75 83.375C78.5833 82.7083 74.1667 82.375 66.5 82.375C60.5 82.375 57.5 82.75 57.5 83.5V102.875C57.5 108.292 57.875 112.083 58.625 114.25C58.875 115.083 61.7083 115.5 67.125 115.5H73.125C80.7917 115.5 86.0417 114.792 88.875 113.375C90.125 112.708 91.5 111.25 93 109C94.5833 106.667 95.8333 103.917 96.75 100.75C96.9167 100.25 97.5 100 98.5 100C100.083 100 101.125 100.25 101.625 100.75C101.375 101.417 100.958 102.458 100.375 103.875C99.875 105.208 99.375 106.583 98.875 108C98.375 109.417 97.9583 110.625 97.625 111.625C97.125 113.125 96.5833 114.833 96 116.75C95.4167 118.667 95.0417 120.25 94.875 121.5Z" fill="#080707"/>
</svg>
